<svg  viewBox="0 0 57.6 79.001" xmlns="http://www.w3.org/2000/svg"><g id="svgGroup" stroke-linecap="round" fill-rule="evenodd" font-size="9pt" stroke="#43d9ad" stroke-width="0.25mm" fill="#43d9ad" style="stroke:#43d9ad;stroke-width:0.25mm;fill:#43d9ad"><path d="M 31.15 64.8 L 30.75 64.8 A 18.086 18.086 0 0 1 29.146 67.927 A 21.845 21.845 0 0 1 28.175 69.325 A 12.983 12.983 0 0 1 24.932 72.344 A 15.584 15.584 0 0 1 23.8 73.025 Q 21.353 74.362 17.839 74.487 A 20.728 20.728 0 0 1 17.1 74.5 A 16.363 16.363 0 0 1 13.311 74.085 A 11.319 11.319 0 0 1 8.325 71.55 A 14.96 14.96 0 0 1 4.95 67.12 A 20.773 20.773 0 0 1 3.5 63.4 A 37.053 37.053 0 0 1 2.33 57.48 A 50.089 50.089 0 0 1 2 51.6 A 52.63 52.63 0 0 1 2.411 44.788 Q 3.453 36.828 7.135 32.256 A 16.442 16.442 0 0 1 7.2 32.175 A 16.97 16.97 0 0 1 19.092 25.926 A 24.295 24.295 0 0 1 21.6 25.8 A 29.611 29.611 0 0 1 27.495 26.375 A 27.249 27.249 0 0 1 28.3 26.55 A 21.916 21.916 0 0 1 30.841 27.324 Q 33.075 28.144 35.7 29.55 L 35.7 59.1 A 49.849 49.849 0 0 0 35.775 61.934 Q 35.935 64.734 36.436 66.61 A 11.73 11.73 0 0 0 36.65 67.325 A 12.026 12.026 0 0 0 37.271 68.846 Q 37.647 69.602 38.094 70.166 A 4.732 4.732 0 0 0 39.2 71.2 Q 40.8 72.25 42.75 72.25 A 3.776 3.776 0 0 0 45.781 70.816 A 5.847 5.847 0 0 0 46.4 69.9 Q 47.7 67.55 48.25 63.35 Q 48.723 59.741 48.863 55.116 A 124.364 124.364 0 0 0 48.9 53.575 Q 49 48 49 41.6 A 113.142 113.142 0 0 0 48.687 33.024 A 93.015 93.015 0 0 0 48.2 28.225 Q 47.4 22 45.15 17.3 Q 42.9 12.6 38.65 9.95 A 16.123 16.123 0 0 0 34.126 8.059 Q 31.193 7.3 27.5 7.3 Q 22.659 7.3 16.946 9.069 A 48.176 48.176 0 0 0 16.925 9.075 A 24.992 24.992 0 0 0 12.162 11.157 Q 9.936 12.4 7.617 14.176 A 52.537 52.537 0 0 0 4.8 16.5 L 0 10.9 A 49.725 49.725 0 0 1 6.781 5.882 A 38.03 38.03 0 0 1 13.725 2.525 A 43.268 43.268 0 0 1 22.147 0.386 A 36.536 36.536 0 0 1 27.4 0 A 43.018 43.018 0 0 1 33.085 0.355 Q 36.064 0.753 38.579 1.597 A 23.121 23.121 0 0 1 40.475 2.325 A 24.668 24.668 0 0 1 46.241 5.799 A 21.525 21.525 0 0 1 49.175 8.7 A 29.095 29.095 0 0 1 54.08 17.251 A 33.234 33.234 0 0 1 54.375 18.075 A 53.688 53.688 0 0 1 56.759 28.261 A 59.955 59.955 0 0 1 56.9 29.375 Q 57.6 35.35 57.6 41.5 A 223.652 223.652 0 0 1 57.448 50.004 Q 57.296 53.991 56.991 57.423 A 97.776 97.776 0 0 1 56.425 62.425 A 44.809 44.809 0 0 1 55.526 67.108 Q 54.311 71.926 52.173 74.779 A 13.176 13.176 0 0 1 52.1 74.875 A 10.221 10.221 0 0 1 45.281 78.824 A 15.375 15.375 0 0 1 42.9 79 A 10.74 10.74 0 0 1 40.138 78.66 A 8.61 8.61 0 0 1 37.55 77.5 Q 35.3 76 33.85 73.725 A 17.199 17.199 0 0 1 32.047 70.004 A 15.68 15.68 0 0 1 31.75 69.025 Q 31.1 66.6 31.15 64.8 Z M 28.4 59.4 L 28.4 33.5 A 13.868 13.868 0 0 0 26.376 32.644 A 11.825 11.825 0 0 0 25.325 32.35 A 13.731 13.731 0 0 0 23.311 32.05 A 17.007 17.007 0 0 0 22 32 A 14.615 14.615 0 0 0 18.491 32.392 A 8.5 8.5 0 0 0 12.65 36.95 Q 10.386 41.433 10.172 49.81 A 70.178 70.178 0 0 0 10.15 51.6 A 56.424 56.424 0 0 0 10.289 55.663 Q 10.434 57.667 10.73 59.427 A 32.096 32.096 0 0 0 10.875 60.225 A 18.065 18.065 0 0 0 11.528 62.696 Q 12.229 64.714 13.35 66.075 A 5.71 5.71 0 0 0 17.537 68.181 A 7.99 7.99 0 0 0 18.1 68.2 Q 21.6 68.2 23.625 66.6 A 12.016 12.016 0 0 0 25.785 64.415 A 10.453 10.453 0 0 0 26.725 62.925 A 67.354 67.354 0 0 0 27.45 61.486 Q 28.02 60.318 28.4 59.4 Z" vector-effect="non-scaling-stroke"/></g></svg>
